<svg height="80" viewBox="0 0 80 80" width="80" xmlns="http://www.w3.org/2000/svg"><path d="m0 0h80v80h-80z" fill="#1e7c74"/><path d="m14 16h-5v-2h5v-4.13a4 4 0 1 1 2 0v4.13h5v2h-5v15.95a10 10 0 0 0 7.66-4.95l-3.46-2 8.2-2.2-2.9 5a12 12 0 0 1 -21 0l-2.89-5 8.2 2.2-3.47 2a10 10 0 0 0 7.66 4.95zm40 40h-5v-2h5v-4.13a4 4 0 1 1 2 0v4.13h5v2h-5v15.95a10 10 0 0 0 7.66-4.95l-3.47-2 8.2-2.2-2.88 5a12 12 0 0 1 -21.02 0l-2.88-5 8.2 2.2-3.47 2a10 10 0 0 0 7.66 4.95zm-39 6a2 2 0 1 1 0-4 2 2 0 0 1 0 4zm40-40a2 2 0 1 1 0-4 2 2 0 0 1 0 4zm-40-14a2 2 0 1 0 0-4 2 2 0 0 0 0 4zm40 40a2 2 0 1 0 0-4 2 2 0 0 0 0 4z" fill="#259f95"/></svg>